<?xml version="1.0" encoding="UTF-8" standalone="no"?>
<!DOCTYPE svg PUBLIC "-//W3C//DTD SVG 1.1//EN"
 "http://www.w3.org/Graphics/SVG/1.1/DTD/svg11.dtd">
<!-- Generated by graphviz version 7.0.6 (20230106.0513)
 -->
<!-- Title: dependency&#45;cruiser output Pages: 1 -->
<svg width="172pt" height="76pt"
 viewBox="0.00 0.00 172.00 76.00" xmlns="http://www.w3.org/2000/svg" xmlns:xlink="http://www.w3.org/1999/xlink">
<g id="graph0" class="graph" transform="scale(1 1) rotate(0) translate(4 72)">
<title>dependency&#45;cruiser output</title>
<polygon fill="white" stroke="none" points="-4,4 -4,-72 168,-72 168,4 -4,4"/>
<g id="clust1" class="cluster">
<title>cluster_app</title>
<path fill="#ffffff" stroke="black" stroke-width="2" d="M20,-8C20,-8 144,-8 144,-8 150,-8 156,-14 156,-20 156,-20 156,-48 156,-48 156,-54 150,-60 144,-60 144,-60 20,-60 20,-60 14,-60 8,-54 8,-48 8,-48 8,-20 8,-20 8,-14 14,-8 20,-8"/>
<text text-anchor="middle" x="82" y="-48.8" font-family="Helvetica,sans-Serif" font-weight="bold" font-size="9.00">app</text>
</g>
<!-- app/index.js -->
<g id="node1" class="node">
<title>app/index.js</title>
<g id="a_node1"><a xlink:href="app/index.js" xlink:title="index.js">
<path fill="#ffffcc" stroke="black" d="M142,-34C142,-34 100,-34 100,-34 97,-34 94,-31 94,-28 94,-28 94,-22 94,-22 94,-19 97,-16 100,-16 100,-16 142,-16 142,-16 145,-16 148,-19 148,-22 148,-22 148,-28 148,-28 148,-31 145,-34 142,-34"/>
<text text-anchor="start" x="105" y="-22.8" font-family="Helvetica,sans-Serif" font-size="9.00">index.js</text>
</a>
</g>
</g>
<!-- app/index.test.js -->
<g id="node2" class="node">
<title>app/index.test.js</title>
<g id="a_node2"><a xlink:href="app/index.test.js" xlink:title="index.test.js">
<path fill="#ffffcc" stroke="black" d="M75,-34C75,-34 22,-34 22,-34 19,-34 16,-31 16,-28 16,-28 16,-22 16,-22 16,-19 19,-16 22,-16 22,-16 75,-16 75,-16 78,-16 81,-19 81,-22 81,-22 81,-28 81,-28 81,-31 78,-34 75,-34"/>
<text text-anchor="start" x="24" y="-22.8" font-family="Helvetica,sans-Serif" font-size="9.00">index.test.js</text>
</a>
</g>
</g>
<!-- app/index.test.js&#45;&gt;app/index.js -->
<g id="edge1" class="edge">
<title>app/index.test.js&#45;&gt;app/index.js</title>
<path fill="none" stroke="#000000" stroke-width="2" stroke-opacity="0.200000" d="M81.45,-25C82.6,-25 83.75,-25 84.9,-25"/>
<polygon fill="#000000" fill-opacity="0.200000" stroke="#000000" stroke-width="2" stroke-opacity="0.200000" points="84.62,-27.1 90.62,-25 84.62,-22.9 84.62,-27.1"/>
</g>
</g>
</svg>
